<?xml version="1.0" encoding="UTF-8"?>
<svg id="Layer_1" xmlns="http://www.w3.org/2000/svg" version="1.1" viewBox="0 0 300 250">
  <!-- Generator: Adobe Illustrator 29.3.1, SVG Export Plug-In . SVG Version: 2.1.0 Build 151)  -->
  <defs>
    <style>
      .st0 {
        fill: #14213d;
      }

      .st1 {
        fill: #fff;
      }
    </style>
  </defs>
  <path class="st0" d="M249.1,177.78v-105.57c0-2.74-1.46-5.28-3.84-6.65L153.84,12.78c-2.37-1.37-5.3-1.37-7.67,0l-91.43,52.78c-2.37,1.37-3.84,3.9-3.84,6.65v105.57c0,2.74,1.46,5.28,3.84,6.65l91.43,52.78c2.37,1.37,5.3,1.37,7.67,0l91.43-52.78c2.37-1.37,3.84-3.9,3.84-6.65Z"/>
  <path class="st1" d="M194.73,90.58c-.07,1.36-.82,2.61-1.51,3.84-3.02,5.08-8.7,14.53-11.72,19.57-9.69,16.46-19.87,34.24-29.61,50.96-1.77,3.09-2.13,3.44-6.84,3.46-1.49,0-2.97.01-4.59,0-4.67,0-10.31,0-14.8,0-2.81-.01-4.62-.02-5.17-.63-.63-.97.34-2.16.79-3.17,2.39-4.27,7.91-13.6,10.43-18.07,2.14-3.23,1.58-5.65-.42-8.76-2.9-5-8.39-14.57-10.55-18.13-.64-.84-1.35-2.58-2.41-1.5-5.34,8.42-22.28,38.5-28.15,48.18-2.09,3.03-4.65,1.78-8.78,2.08-5.86,0-14.67,0-18.91,0-3.29-.03-4.05-.14-3.67-1.01,6.99-12.32,54.59-94.14,59.61-102.82.82-1.35,1.24.19,2.32,1.83,5.21,8.99,15.2,26.19,21,36.2,3.49,5.94,6.04,10.58,7.06,12.01.69,1.06,1.36.11,1.86-.73,4.83-7.48,22.69-40.62,29.1-49.28.41-.06.85.36,1.48,1.3.92,1.38,2.37,3.97,4.16,7.04,1.9,3.28,4.09,7.05,5.85,10.08,2.08,3.65,3.49,5.73,3.49,7.42v.16ZM205.08,108.92c-5.78,8.64-13.66,23.39-19.55,33.1-4.01,6.92-11.64,19.94-13.98,24.07-.32.64-.72,1.26-.51,1.81.41.5,1.44.44,2.24.48,5.95.03,24.35,0,30.63.01,9.34.01,24.67,0,33.01,0,1.15-.09,3.62.29,2.53-1.44-3.72-6.41-25.33-43.7-33.62-57.72-.2-.27-.4-.47-.7-.34l-.06.03Z"/>
</svg>